HIERARCHY
ROOT Hips
{
	OFFSET 0.000000 0.000000 0.000000
	CHANNELS 6 Xposition Yposition Zposition Zrotation Yrotation Xrotation 
	JOINT LeftUpLeg_virtual
	{
		OFFSET 0.000000 0.000000 0.000000
		CHANNELS 3 Zrotation Yrotation Xrotation
		JOINT LeftUpLeg
		{
			OFFSET 8.479694 -4.795517 -0.379053
			CHANNELS 3 Zrotation Yrotation Xrotation
			JOINT LeftLeg
			{
				OFFSET 0.485052 -32.551468 0.112863
				CHANNELS 3 Zrotation Yrotation Xrotation
				JOINT LeftFoot
				{
					OFFSET 0.438033 -32.635670 -3.012641
					CHANNELS 3 Zrotation Yrotation Xrotation
					JOINT LeftToeBase
					{
						OFFSET 0.970169 -13.225353 11.864223
						CHANNELS 3 Zrotation Yrotation Xrotation
						End Site
						{
							OFFSET 0.000000 0.000000 0.000000
						}
					}
				}
			}
		}
	}
	JOINT RightUpLeg_virtual
	{
		OFFSET 0.000000 0.000000 0.000000
		CHANNELS 3 Zrotation Yrotation Xrotation
		JOINT RightUpLeg
		{
			OFFSET -8.479694 -4.795517 -0.379053
			CHANNELS 3 Zrotation Yrotation Xrotation
			JOINT RightLeg
			{
				OFFSET -0.484100 -32.551483 0.112903
				CHANNELS 3 Zrotation Yrotation Xrotation
				JOINT RightFoot
				{
					OFFSET -0.438985 -32.635651 -3.012681
					CHANNELS 3 Zrotation Yrotation Xrotation
					JOINT RightToeBase
					{
						OFFSET -0.970169 -13.225354 11.864223
						CHANNELS 3 Zrotation Yrotation Xrotation
						End Site
						{
							OFFSET 0.000000 0.000000 0.000000
						}
					}
				}
			}
		}
	}
	JOINT Spine_virtual
	{
		OFFSET 0.000000 0.000000 0.000000
		CHANNELS 3 Zrotation Yrotation Xrotation
		JOINT Spine
		{
			OFFSET 0.000000 7.722015 1.166203
			CHANNELS 3 Zrotation Yrotation Xrotation
			JOINT Spine1
			{
				OFFSET 0.000000 12.024086 0.248766
				CHANNELS 3 Zrotation Yrotation Xrotation
				JOINT Spine2
				{
					OFFSET -0.000000 11.503036 -0.491240
					CHANNELS 3 Zrotation Yrotation Xrotation
					JOINT Neck_virtual
					{
						OFFSET 0.000000 0.000000 0.000000
						CHANNELS 3 Zrotation Yrotation Xrotation
						JOINT Neck
						{
							OFFSET 0.000000 18.430687 -3.123054
							CHANNELS 3 Zrotation Yrotation Xrotation
							JOINT Head
							{
								OFFSET -0.000000 9.051071 1.034021
								CHANNELS 3 Zrotation Yrotation Xrotation
								End Site
								{
									OFFSET 0.000000 0.000000 0.000000
								}
							}
						}
					}
					JOINT LeftShoulder_virtual
					{
						OFFSET 0.000000 0.000000 0.000000
						CHANNELS 3 Zrotation Yrotation Xrotation
						JOINT LeftShoulder
						{
							OFFSET 6.197824 13.665230 -4.064723
							CHANNELS 3 Zrotation Yrotation Xrotation
							JOINT LeftArm
							{
								OFFSET 7.778132 -0.187073 -1.709282
								CHANNELS 3 Zrotation Yrotation Xrotation
								JOINT LeftForeArm
								{
									OFFSET 21.954697 0.000000 -2.041093
									CHANNELS 3 Zrotation Yrotation Xrotation
									JOINT LeftHand
									{
										OFFSET 22.992908 0.000000 -0.870901
										CHANNELS 3 Zrotation Yrotation Xrotation
										End Site
										{
											OFFSET 0.000000 0.000000 0.000000
										}
									}
								}
							}
						}
					}
					JOINT RightShoulder_virtual
					{
						OFFSET 0.000000 0.000000 0.000000
						CHANNELS 3 Zrotation Yrotation Xrotation
						JOINT RightShoulder
						{
							OFFSET -6.197824 13.665230 -4.064723
							CHANNELS 3 Zrotation Yrotation Xrotation
							JOINT RightArm
							{
								OFFSET -7.778132 -0.187073 -1.709282
								CHANNELS 3 Zrotation Yrotation Xrotation
								JOINT RightForeArm
								{
									OFFSET -21.954697 0.000000 -2.041093
									CHANNELS 3 Zrotation Yrotation Xrotation
									JOINT RightHand
									{
										OFFSET -22.992908 0.000000 -0.870901
										CHANNELS 3 Zrotation Yrotation Xrotation
										End Site
										{
											OFFSET 0.000000 0.000000 0.000000
										}
									}
								}
							}
						}
					}
				}
			}
		}
	}
}
MOTION
Frames: 10
Frame Time: 0.033333
22.369164 80.870102 -63.672123 179.984951 -40.116819 179.878837 -0.852895 -4.343738 11.999222 2.136266 0.248816 -27.373347 11.136921 6.430049 32.708454 -6.387079 -10.743160 -5.366279 0.000000 0.000000 0.000000 1.882844 -5.314591 11.896365 -4.117562 12.777834 -35.366132 -1.873236 3.215946 30.386593 9.337428 6.020562 -8.155114 0.000000 0.000000 0.000000 6.141448 -1.476733 -3.909870 -8.851199 -4.053231 7.243864 3.160179 -2.132549 4.546677 0.015362 0.026087 -0.019299 1.725187 -0.420870 12.592360 4.059399 -16.544865 -15.631050 0.000000 0.000000 0.000000 4.729697 0.573864 10.471354 -15.286252 -2.023471 -22.345073 -74.641209 -8.083202 -116.888060 14.500082 -46.995588 7.506885 0.000000 0.000000 0.000000 -0.119540 1.819319 9.839958 22.573089 17.398756 0.577473 41.577370 -3.226022 16.314049 -10.422969 29.687567 3.864250 0.000000 0.000000 0.000000 
22.418455 80.744720 -62.721653 179.900708 -40.512297 -179.893126 -0.790135 -4.453216 11.245438 1.849484 0.368771 -27.266634 11.303450 6.810331 33.029330 -6.420937 -10.819919 -6.191993 0.000000 0.000000 0.000000 2.015086 -4.804446 11.416659 -4.376371 12.776433 -35.921092 -2.345887 3.729488 29.974565 9.141100 5.731047 -8.658776 0.000000 0.000000 0.000000 6.135263 -1.378222 -4.578417 -8.369639 -3.715058 7.147811 3.099105 -2.115837 4.677426 0.018975 0.024008 0.027698 1.605497 -0.269279 12.666782 4.257079 -16.920436 -15.674029 0.000000 0.000000 0.000000 4.572722 0.669057 10.600273 -15.632556 -1.832656 -22.457571 -74.412705 -8.061119 -117.621007 16.526037 -38.066885 4.256494 0.000000 0.000000 0.000000 -0.291107 1.904971 9.831520 23.130029 17.565681 0.622684 41.332535 -2.596351 16.752579 -10.411208 30.804782 3.792136 0.000000 0.000000 0.000000 
22.516796 80.565147 -61.383190 179.848921 -40.390737 -179.864084 -0.687576 -4.184976 10.519101 1.347906 0.473754 -27.097145 10.953073 7.129977 32.983134 -6.575900 -10.736972 -7.549502 0.000000 0.000000 0.000000 2.051959 -3.952018 10.813828 -4.637469 12.057219 -36.735995 -2.830940 3.731185 30.768237 9.423615 6.019190 -7.107165 0.000000 0.000000 0.000000 6.229289 -1.173813 -5.033156 -7.880350 -3.257418 6.571075 2.940399 -2.030705 5.031440 0.070774 -0.031771 0.013883 1.439525 0.000629 12.972134 4.381479 -17.313582 -15.211878 0.000000 0.000000 0.000000 4.402914 0.866301 10.823142 -15.650094 -1.080460 -22.313198 -74.076530 -7.808892 -118.039602 16.460515 -30.927646 -1.008200 0.000000 0.000000 0.000000 -0.526639 2.051934 10.050444 24.172769 16.673248 0.596916 41.069251 -2.267165 17.838776 -10.281825 32.135084 3.835195 0.000000 0.000000 0.000000 
22.721243 80.463135 -60.099453 179.880067 -39.636988 -179.922824 -0.308253 -3.742975 10.085455 0.308983 0.558160 -27.081642 10.831120 7.747642 32.670659 -5.814920 -9.527180 -8.309024 0.000000 0.000000 0.000000 1.936514 -3.477175 10.444254 -4.899305 11.429631 -37.570323 -2.610711 3.627721 30.200696 9.807071 6.073404 -4.068807 0.000000 0.000000 0.000000 6.394086 -0.942384 -5.124208 -7.485879 -2.883901 5.634814 2.815503 -1.829095 5.436513 -0.005933 -0.043359 0.095073 1.423758 0.334468 13.266651 4.491086 -17.422216 -14.426164 0.000000 0.000000 0.000000 4.304790 1.121391 10.925864 -15.023206 -0.497134 -21.775862 -73.297355 -7.103663 -116.303860 14.191489 -24.881836 -4.534508 0.000000 0.000000 0.000000 -0.628150 2.344211 10.209318 25.516385 14.782368 0.316634 40.890539 -2.364497 18.938979 -10.081884 33.351476 4.033356 0.000000 0.000000 0.000000 
23.030516 80.459595 -59.041397 179.750348 -38.853169 -179.897047 -0.293686 -3.406914 9.986773 -0.619268 0.640742 -27.430813 11.220310 8.382327 32.366115 -5.032307 -7.941768 -8.604712 0.000000 0.000000 0.000000 2.014066 -3.583426 10.303682 -5.207700 10.698620 -38.229962 -2.390267 3.431286 29.227588 10.001579 5.810333 -2.450600 0.000000 0.000000 0.000000 6.440378 -0.757474 -5.116058 -7.359574 -2.670929 4.415610 2.681839 -1.611119 6.095995 0.011984 -0.061173 0.015933 1.471697 0.577709 13.719565 4.619633 -17.720178 -13.431893 0.000000 0.000000 0.000000 4.235642 1.355920 11.275202 -13.860031 -0.871912 -20.723098 -71.563819 -5.362957 -110.760431 10.874569 -22.253214 -5.766708 0.000000 0.000000 0.000000 -0.688705 2.568560 10.492703 26.942222 12.304936 -0.097423 41.017151 -2.489131 19.688464 -9.918942 34.333688 4.095816 0.000000 0.000000 0.000000 
23.448851 80.521591 -58.236443 179.789362 -37.960258 -179.979719 -0.249154 -3.295967 10.176212 -0.941625 0.283655 -27.886932 11.563797 8.440638 31.654273 -5.049172 -7.049465 -7.839905 0.000000 0.000000 0.000000 2.076038 -3.522116 10.439376 -5.117195 10.181819 -38.346782 -2.556627 2.985078 28.602672 9.809552 5.261707 -2.430083 0.000000 0.000000 0.000000 6.382254 -0.629999 -5.169698 -7.210525 -2.553833 3.238729 2.681150 -1.319353 6.786844 -0.001811 -0.039518 -0.015592 1.606709 0.682067 14.281419 4.712364 -17.691923 -12.415536 0.000000 0.000000 0.000000 4.218752 1.535595 11.525678 -12.356911 -2.519539 -18.756953 -68.773762 -2.064533 -99.077180 7.860633 -24.610488 -4.865145 0.000000 0.000000 0.000000 -0.717349 2.856488 10.944191 28.442048 9.838363 -0.609864 41.642048 -2.584427 20.423152 -9.622920 35.176960 4.260166 0.000000 0.000000 0.000000 
23.913456 80.652710 -57.658329 179.826395 -37.512208 179.994541 -0.838645 -3.175514 10.273615 -0.344784 -0.130660 -28.238577 11.707577 8.308055 31.190475 -5.070966 -6.247907 -7.120751 0.000000 0.000000 0.000000 1.889780 -3.273846 10.407336 -4.791853 10.057983 -37.936653 -2.667180 2.577894 29.251357 9.174754 4.766160 -3.332250 0.000000 0.000000 0.000000 5.940556 -0.410774 -5.542170 -6.872919 -2.533979 2.226536 2.660064 -1.028375 7.580561 0.028176 0.005876 -0.015725 1.796877 0.906821 14.960790 4.699495 -17.434102 -11.425626 0.000000 0.000000 0.000000 4.188984 1.664574 11.982099 -10.872509 -5.125794 -16.366040 -64.638226 2.895424 -79.155151 4.995235 -28.226829 -2.037460 0.000000 0.000000 0.000000 -0.710163 3.046150 11.365189 29.976300 7.512256 -1.128712 43.227383 -2.786415 21.497107 -9.212579 36.094842 4.160694 0.000000 0.000000 0.000000 
24.209713 80.797897 -57.264305 179.981140 -37.462146 179.924873 -1.239961 -3.014299 10.019564 0.341041 -0.507368 -28.327113 11.558968 8.152913 30.934661 -5.166390 -5.600700 -6.436058 0.000000 0.000000 0.000000 1.903655 -2.971944 10.111919 -4.732856 10.708464 -37.333794 -2.497031 3.456989 31.407887 9.325430 5.215415 -4.615406 0.000000 0.000000 0.000000 5.340806 -0.174056 -6.330037 -6.369083 -2.572883 1.469475 2.602857 -0.832374 8.378706 0.001032 -0.035868 0.017979 1.955023 1.201163 15.601457 4.574553 -17.028372 -10.396741 0.000000 0.000000 0.000000 4.133439 1.796929 12.386426 -10.034385 -7.983578 -13.675120 -58.764004 8.298822 -52.196183 2.545384 -31.788711 1.212435 0.000000 0.000000 0.000000 -0.708292 3.379988 11.786342 31.375806 5.618520 -1.391366 45.605634 -3.445408 23.440207 -9.028231 37.056396 3.515344 0.000000 0.000000 0.000000 
24.297686 80.871819 -57.099209 -179.987560 -37.511180 179.976236 -1.257191 -2.870831 9.458914 0.284268 -0.800797 -28.099263 11.695191 7.942263 30.922712 -5.487486 -5.281439 -5.894862 0.000000 0.000000 0.000000 1.736875 -2.608209 9.511914 -5.108251 11.993054 -36.344926 -2.003975 4.963923 33.591861 10.073946 7.225272 -6.157407 0.000000 0.000000 0.000000 4.603556 0.089873 -7.269795 -5.809938 -2.426134 0.785268 2.458617 -0.620102 9.080197 -0.026343 -0.034135 0.014666 1.988518 1.436748 15.950645 4.420409 -16.533767 -9.441405 0.000000 0.000000 0.000000 3.999046 1.891344 12.808286 -9.786736 -10.403649 -10.949849 -52.177372 11.597372 -25.824008 0.707044 -35.187147 3.939467 0.000000 0.000000 0.000000 -0.851987 3.471135 12.047412 32.294685 4.044987 -1.545403 48.298071 -4.964397 25.415626 -8.986749 37.667175 2.482071 0.000000 0.000000 0.000000 
24.203238 80.896271 -57.064957 -179.825603 -37.932180 179.969296 -1.182661 -2.760108 8.822885 0.132529 -1.307343 -27.721472 11.997674 7.630542 31.125452 -5.805694 -5.008258 -5.627829 0.000000 0.000000 0.000000 1.258583 -2.044719 8.921063 -5.882604 13.784905 -35.446482 -0.739293 6.721141 35.524019 11.590249 9.824990 -6.202706 0.000000 0.000000 0.000000 3.969483 0.359364 -8.013006 -5.218350 -2.181531 -0.002745 2.216107 -0.487948 9.593113 -0.023074 -0.089191 0.003968 1.868672 1.530064 15.837295 4.046045 -15.797049 -8.451915 0.000000 0.000000 0.000000 3.756234 1.857254 12.894905 -9.844621 -11.981347 -8.548064 -47.184105 12.277228 -7.944346 0.130091 -36.205030 5.163933 0.000000 0.000000 0.000000 -1.075693 3.626216 11.847960 32.445396 2.334896 -1.789721 50.890872 -7.340844 26.684007 -8.908179 37.725423 1.463589 0.000000 0.000000 0.000000 
